<svg xmlns="http://www.w3.org/2000/svg" xmlns:xlink="http://www.w3.org/1999/xlink" viewBox="0 0 64 64" version="1.1" style="" height="60px">
<g id="surface1" style="" fill="currentColor">
<path style="" d="M 9 0 C 7.347656 0 6 1.347656 6 3 L 6 29 C 6 30.652344 7.347656 32 9 32 L 59 32 C 60.652344 32 62 30.652344 62 29 L 62 3 C 62 1.347656 60.652344 0 59 0 Z M 9 2 L 59 2 C 59.550781 2 60 2.449219 60 3 L 60 29 C 60 29.550781 59.550781 30 59 30 L 9 30 C 8.449219 30 8 29.550781 8 29 L 8 3 C 8 2.449219 8.449219 2 9 2 Z M 21 4 C 20.449219 4 20 4.449219 20 5 L 20 7 C 20 7.550781 20.449219 8 21 8 C 21.550781 8 22 7.550781 22 7 L 22 5 C 22 4.449219 21.550781 4 21 4 Z M 26 4 C 25.449219 4 25 4.449219 25 5 L 25 7 C 25 7.550781 25.449219 8 26 8 C 26.550781 8 27 7.550781 27 7 L 27 5 C 27 4.449219 26.550781 4 26 4 Z M 31 4 C 30.449219 4 30 4.449219 30 5 L 30 7 C 30 7.019531 30.007813 7.03125 30.011719 7.050781 C 27.046875 8.6875 25 12.078125 25 16 C 25 19.921875 27.046875 23.3125 30.011719 24.949219 C 30.007813 24.96875 30 24.980469 30 25 L 30 27 C 30 27.550781 30.449219 28 31 28 C 31.550781 28 32 27.550781 32 27 L 32 25.742188 C 32.644531 25.90625 33.3125 26 34 26 C 34.6875 26 35.355469 25.90625 36 25.742188 L 36 27 C 36 27.550781 36.449219 28 37 28 C 37.550781 28 38 27.550781 38 27 L 38 25 C 38 24.980469 37.992188 24.96875 37.988281 24.949219 C 40.953125 23.3125 43 19.921875 43 16 C 43 12.078125 40.953125 8.6875 37.988281 7.050781 C 37.992188 7.03125 38 7.019531 38 7 L 38 5 C 38 4.449219 37.550781 4 37 4 C 36.449219 4 36 4.449219 36 5 L 36 6.257813 C 35.355469 6.09375 34.6875 6 34 6 C 33.3125 6 32.644531 6.09375 32 6.257813 L 32 5 C 32 4.449219 31.550781 4 31 4 Z M 42 4 C 41.449219 4 41 4.449219 41 5 L 41 7 C 41 7.550781 41.449219 8 42 8 C 42.550781 8 43 7.550781 43 7 L 43 5 C 43 4.449219 42.550781 4 42 4 Z M 47 4 C 46.449219 4 46 4.449219 46 5 L 46 7 C 46 7.550781 46.449219 8 47 8 C 47.550781 8 48 7.550781 48 7 L 48 5 C 48 4.449219 47.550781 4 47 4 Z M 11 5 C 10.449219 5 10 5.449219 10 6 C 10 6.550781 10.449219 7 11 7 L 16 7 C 16.550781 7 17 6.550781 17 6 C 17 5.449219 16.550781 5 16 5 Z M 52 5 C 51.449219 5 51 5.449219 51 6 C 51 6.550781 51.449219 7 52 7 L 57 7 C 57.550781 7 58 6.550781 58 6 C 58 5.449219 57.550781 5 57 5 Z M 34 8 C 37.859375 8 41 11.589844 41 16 C 41 20.410156 37.859375 24 34 24 C 30.140625 24 27 20.410156 27 16 C 27 11.589844 30.140625 8 34 8 Z M 16 13 C 13.792969 13 12 14.792969 12 17 C 12 19.207031 13.792969 21 16 21 C 18.207031 21 20 19.207031 20 17 C 20 14.792969 18.207031 13 16 13 Z M 52 13 C 49.792969 13 48 14.792969 48 17 C 48 19.207031 49.792969 21 52 21 C 54.207031 21 56 19.207031 56 17 C 56 14.792969 54.207031 13 52 13 Z M 16 15 C 17.101563 15 18 15.898438 18 17 C 18 18.101563 17.101563 19 16 19 C 14.898438 19 14 18.101563 14 17 C 14 15.898438 14.898438 15 16 15 Z M 52 15 C 53.101563 15 54 15.898438 54 17 C 54 18.101563 53.101563 19 52 19 C 50.898438 19 50 18.101563 50 17 C 50 15.898438 50.898438 15 52 15 Z M 21 24 C 20.449219 24 20 24.449219 20 25 L 20 27 C 20 27.550781 20.449219 28 21 28 C 21.550781 28 22 27.550781 22 27 L 22 25 C 22 24.449219 21.550781 24 21 24 Z M 26 24 C 25.449219 24 25 24.449219 25 25 L 25 27 C 25 27.550781 25.449219 28 26 28 C 26.550781 28 27 27.550781 27 27 L 27 25 C 27 24.449219 26.550781 24 26 24 Z M 42 24 C 41.449219 24 41 24.449219 41 25 L 41 27 C 41 27.550781 41.449219 28 42 28 C 42.550781 28 43 27.550781 43 27 L 43 25 C 43 24.449219 42.550781 24 42 24 Z M 47 24 C 46.449219 24 46 24.449219 46 25 L 46 27 C 46 27.550781 46.449219 28 47 28 C 47.550781 28 48 27.550781 48 27 L 48 25 C 48 24.449219 47.550781 24 47 24 Z M 11 25 C 10.449219 25 10 25.449219 10 26 C 10 26.550781 10.449219 27 11 27 L 16 27 C 16.550781 27 17 26.550781 17 26 C 17 25.449219 16.550781 25 16 25 Z M 52 25 C 51.449219 25 51 25.449219 51 26 C 51 26.550781 51.449219 27 52 27 L 57 27 C 57.550781 27 58 26.550781 58 26 C 58 25.449219 57.550781 25 57 25 Z M 20.296875 37.347656 C 19.691406 37.335938 19.085938 37.363281 18.480469 37.4375 L 6.648438 38.828125 C 5.140625 39.003906 4 40.285156 4 41.808594 L 4 54.46875 C 4 55.398438 4.421875 56.257813 5.15625 56.828125 C 5.886719 57.402344 6.824219 57.601563 7.726563 57.375 L 14.289063 55.738281 C 15.960938 55.324219 17.722656 55.53125 19.25 56.335938 L 31.835938 62.964844 C 33.148438 63.65625 34.585938 64 36.03125 64 C 37.453125 64 38.871094 63.664063 40.171875 62.988281 L 61.472656 51.941406 C 63.03125 51.136719 64 49.542969 64 47.78125 C 64 46.324219 63.335938 44.976563 62.183594 44.082031 C 61.03125 43.1875 59.554688 42.886719 58.144531 43.253906 L 44.734375 46.730469 C 44.472656 45.949219 44.015625 45.234375 43.40625 44.664063 C 42.390625 43.722656 41.023438 43.242188 39.640625 43.339844 L 37.449219 43.496094 C 36.589844 43.558594 35.734375 43.394531 34.957031 43.03125 L 25.546875 38.589844 C 23.894531 37.8125 22.105469 37.390625 20.296875 37.347656 Z M 20.25 39.347656 C 21.78125 39.386719 23.296875 39.738281 24.691406 40.398438 L 34.105469 44.839844 C 35.191406 45.351563 36.394531 45.574219 37.59375 45.488281 L 39.785156 45.332031 C 40.625 45.277344 41.429688 45.558594 42.046875 46.128906 C 42.660156 46.703125 43 47.480469 43 48.324219 L 43 48.734375 C 43 49.125 42.769531 49.484375 42.410156 49.644531 L 39.457031 50.96875 C 37.242188 51.964844 34.679688 52.019531 32.425781 51.117188 L 27.382813 49.097656 C 26.867188 48.890625 26.285156 49.140625 26.082031 49.65625 C 25.875 50.167969 26.125 50.75 26.640625 50.953125 L 31.683594 52.972656 C 34.441406 54.078125 37.574219 54.011719 40.28125 52.796875 L 43.230469 51.46875 C 44.304688 50.984375 45 49.910156 45 48.734375 L 58.644531 45.1875 C 59.457031 44.980469 60.296875 45.152344 60.957031 45.660156 C 61.621094 46.171875 62 46.945313 62 47.789063 C 62 48.792969 61.445313 49.707031 60.554688 50.171875 L 39.25 61.214844 C 37.21875 62.269531 34.792969 62.261719 32.765625 61.191406 L 20.179688 54.5625 C 18.875 53.878906 17.4375 53.527344 15.988281 53.527344 C 15.257813 53.527344 14.527344 53.617188 13.808594 53.796875 L 7.242188 55.4375 C 6.941406 55.511719 6.628906 55.445313 6.386719 55.253906 C 6.140625 55.0625 6 54.777344 6 54.46875 L 6 41.808594 C 6 41.300781 6.378906 40.871094 6.882813 40.8125 L 18.714844 39.421875 C 19.226563 39.363281 19.738281 39.339844 20.25 39.347656 Z M 9 42.027344 C 8.449219 42.027344 8 42.476563 8 43.027344 C 8 43.578125 8.449219 44.027344 9 44.027344 L 11 44.027344 C 11.550781 44.027344 12 43.578125 12 43.027344 C 12 42.476563 11.550781 42.027344 11 42.027344 Z M 9 47.027344 C 8.449219 47.027344 8 47.476563 8 48.027344 C 8 48.578125 8.449219 49.027344 9 49.027344 L 11 49.027344 C 11.550781 49.027344 12 48.578125 12 48.027344 C 12 47.476563 11.550781 47.027344 11 47.027344 Z M 9 52.027344 C 8.449219 52.027344 8 52.476563 8 53.027344 C 8 53.578125 8.449219 54.027344 9 54.027344 L 11 54.027344 C 11.550781 54.027344 12 53.578125 12 53.027344 C 12 52.476563 11.550781 52.027344 11 52.027344 Z " fill="currentColor"></path>
</g>
</svg>