<?xml version="1.0" encoding="utf-8"?>
<!-- Generator: Adobe Illustrator 22.1.0, SVG Export Plug-In . SVG Version: 6.00 Build 0)  -->
<svg version="1.1" id="Capa_1" xmlns="http://www.w3.org/2000/svg" xmlns:xlink="http://www.w3.org/1999/xlink" x="0px" y="0px"
	 viewBox="0 0 3263.8 457.1" style="enable-background:new 0 0 3263.8 457.1;" xml:space="preserve">
<style type="text/css">
	.st0{fill:#FFFFFF;}
	.st1{fill:#E4926D;}
</style>
<g>
	<g>
		<g>
			<path class="st0" d="M865.2,119.7c0,1.7-0.3,2.5-0.8,2.5c-10.2,0-19.8,4.3-28.7,13c-9,8.7-16.3,20.6-22.1,35.7l-76.5,204.2
				c-0.3,1.1-1.8,1.7-4.5,1.7c-2.8,0-4.3-0.6-4.5-1.7l-52.9-112l-41.7,112c-0.3,1.1-1.8,1.7-4.5,1.7c-2.8,0-4.3-0.6-4.5-1.7
				L519,151.5c-4.1-8.8-7.5-15.1-10.1-19s-5.5-6.5-8.7-8.1c-3.2-1.5-7.4-2.3-12.6-2.3c-0.8,0-1.2-0.8-1.2-2.5s0.4-2.5,1.2-2.5
				c4.1,0,7,0.1,8.7,0.4c5.5,0.6,12.7,0.8,21.5,0.8c18.5,0,34-0.3,46.7-0.8c3.6-0.3,8-0.4,13.2-0.4c0.8,0,1.2,0.8,1.2,2.5
				s-0.4,2.5-1.2,2.5c-6.9,0-11.8,0.7-14.7,2.1c-2.9,1.4-4.3,3.9-4.3,7.4c0,4.7,3.2,13.8,9.5,27.3l74.4,157.8l26-68.2l-45.9-97.1
				c-4.7-9.9-9.1-17.3-13.2-22.1c-4.1-4.8-8.5-7.2-13.2-7.2c-0.8,0-1.2-0.8-1.2-2.5s0.4-2.5,1.2-2.5c2.8,0,6,0.2,9.7,0.6
				s9,0.6,15.9,0.6c15.7,0,28.8-0.3,39.3-0.8c2.8-0.3,6.3-0.4,10.7-0.4c0.8,0,1.2,0.8,1.2,2.5s-0.4,2.5-1.2,2.5
				c-3.9,0-6.7,0.5-8.5,1.4c-1.8,1-2.7,2.7-2.7,5.2c0,4.7,3.7,14.7,11.2,30.2l18.2,38.4l10.3-27.7c6.1-15.7,9.1-27.5,9.1-35.5
				s-3.4-12-10.3-12c-0.8,0-1.2-0.8-1.2-2.5s0.4-2.5,1.2-2.5c2.2,0,4.6,0.2,7.2,0.6c2.6,0.4,9.2,0.6,19.6,0.6
				c4.7,0,10.3-0.3,16.9-0.8l15.3-0.4c0.5,0,0.8,0.8,0.8,2.5s-0.3,2.5-0.8,2.5c-18.5,0-33.7,16.3-45.9,48.8L697,211.8l49.6,104.5
				l53.3-142.6c3.3-8.8,5-16.8,5-24c0-8.5-2.1-15.3-6.4-20.2c-4.3-5-10-7.4-17.1-7.4c-0.8,0-1.2-0.8-1.2-2.5s0.4-2.5,1.2-2.5l19,0.4
				c9.9,0.6,19,0.8,27.3,0.8c5.5,0,11.8-0.3,19-0.8l17.8-0.4C865,117.2,865.2,118.1,865.2,119.7z"/>
			<path class="st0" d="M864.8,373c0-1.7,0.4-2.5,1.2-2.5c8.5,0,14.3-2,17.4-6c3-4,4.5-11.5,4.5-22.5v-74c0-9.4-1-16.1-2.9-20.2
				s-5.1-6.2-9.5-6.2c-3.6,0-8.7,1.5-15.3,4.5h-0.4c-1.1,0-1.9-0.8-2.5-2.3s-0.4-2.4,0.4-2.7l62.4-28.9l1.2-0.4
				c1.4,0,2.8,0.7,4.1,2.1c1.4,1.4,2.1,2.6,2.1,3.7v9.1c-0.6,11-0.8,24.5-0.8,40.5V342c0,11,1.6,18.5,4.8,22.5c3.2,4,9,6,17.6,6
				c0.8,0,1.2,0.8,1.2,2.5s-0.4,2.5-1.2,2.5c-7.2,0-12.8-0.1-16.9-0.4l-24.8-0.4l-24.4,0.4c-4.1,0.3-9.8,0.4-16.9,0.4
				C865.2,375.5,864.8,374.7,864.8,373z M887.1,164.3c-4.4-4.4-6.6-10.6-6.6-18.6c0-7.2,2.3-12.9,6.8-17.1
				c4.5-4.3,10.7-6.4,18.4-6.4c7.7,0,13.6,2.1,17.8,6.2c4.1,4.1,6.2,9.9,6.2,17.4c0,8-2.1,14.2-6.2,18.6c-4.1,4.4-10.1,6.6-17.8,6.6
				C897.7,171,891.5,168.8,887.1,164.3z"/>
			<path class="st0" d="M972.2,373c0-1.7,0.3-2.5,0.8-2.5c8.5,0,14.4-2,17.6-6s4.8-11.5,4.8-22.5l0.4-209.9c0-9.6-0.9-16.5-2.7-20.7
				c-1.8-4.1-4.9-6.2-9.3-6.2c-3.6,0-8.8,1.5-15.7,4.5h-0.4c-0.8,0-1.6-0.8-2.3-2.3c-0.7-1.5-0.8-2.4-0.2-2.7l60.7-28.5l1.7-0.4
				c1.4,0,2.9,0.6,4.5,1.9c1.7,1.2,2.5,2.4,2.5,3.5v260.7c0,11,1.5,18.5,4.5,22.5s8.8,6,17.4,6c1.1,0,1.7,0.8,1.7,2.5
				s-0.6,2.5-1.7,2.5c-6.9,0-12.4-0.1-16.5-0.4l-25.2-0.4L990,375c-4.1,0.3-9.8,0.4-16.9,0.4C972.5,375.5,972.2,374.7,972.2,373z"/>
			<path class="st0" d="M1083,373c0-1.7,0.3-2.5,0.8-2.5c8.5,0,14.4-2,17.6-6s4.8-11.5,4.8-22.5l0.4-209.9c0-9.6-0.9-16.5-2.7-20.7
				c-1.8-4.1-4.9-6.2-9.3-6.2c-3.6,0-8.8,1.5-15.7,4.5h-0.4c-0.8,0-1.6-0.8-2.3-2.3c-0.7-1.5-0.8-2.4-0.2-2.7l60.7-28.5l1.7-0.4
				c1.4,0,2.9,0.6,4.5,1.9c1.7,1.2,2.5,2.4,2.5,3.5v260.7c0,11,1.5,18.5,4.5,22.5s8.8,6,17.4,6c1.1,0,1.7,0.8,1.7,2.5
				s-0.6,2.5-1.7,2.5c-6.9,0-12.4-0.1-16.5-0.4l-25.2-0.4l-24.8,0.4c-4.1,0.3-9.8,0.4-16.9,0.4C1083.3,375.5,1083,374.7,1083,373z"
				/>
			<path class="st0" d="M1195,373c0-1.7,0.4-2.5,1.2-2.5c8.5,0,14.3-2,17.4-6c3-4,4.5-11.5,4.5-22.5v-74c0-9.4-1-16.1-2.9-20.2
				s-5.1-6.2-9.5-6.2c-3.6,0-8.7,1.5-15.3,4.5h-0.4c-1.1,0-1.9-0.8-2.5-2.3s-0.4-2.4,0.4-2.7l62.4-28.9l1.2-0.4
				c1.4,0,2.8,0.7,4.1,2.1c1.4,1.4,2.1,2.6,2.1,3.7v9.1c-0.6,11-0.8,24.5-0.8,40.5V342c0,11,1.6,18.5,4.8,22.5c3.2,4,9,6,17.6,6
				c0.8,0,1.2,0.8,1.2,2.5s-0.4,2.5-1.2,2.5c-7.2,0-12.8-0.1-16.9-0.4l-24.8-0.4l-24.4,0.4c-4.1,0.3-9.8,0.4-16.9,0.4
				C1195.4,375.5,1195,374.7,1195,373z M1217.3,164.3c-4.4-4.4-6.6-10.6-6.6-18.6c0-7.2,2.3-12.9,6.8-17.1
				c4.5-4.3,10.7-6.4,18.4-6.4c7.7,0,13.6,2.1,17.8,6.2c4.1,4.1,6.2,9.9,6.2,17.4c0,8-2.1,14.2-6.2,18.6c-4.1,4.4-10.1,6.6-17.8,6.6
				C1227.9,171,1221.7,168.8,1217.3,164.3z"/>
			<path class="st0" d="M1461.9,353.2c1.1,0,1.9,0.6,2.3,1.9c0.4,1.2,0.1,2.1-1,2.7l-42.6,20.2c-1.1,0.5-2.5,0.8-4.1,0.8
				c-4.4,0-8.6-2.3-12.6-7s-6.8-11-8.5-19l-17.8,12.4c-6.3,4.7-12.3,8.1-17.8,10.1c-5.5,2.1-11.7,3.1-18.6,3.1
				c-11.8,0-20.8-2.6-26.9-7.9c-6.1-5.2-9.1-12.5-9.1-21.9c0-7.4,1.8-13.4,5.4-18c3.6-4.5,8.1-8.1,13.4-10.7
				c5.4-2.6,12.9-5.6,22.5-8.9l10.3-3.7l37.3-13.6v-23.6c0-17.6-1.4-30.4-4.3-38.4s-7.8-12-14.7-12c-14.6,0-22.9,11.3-24.8,33.9
				c-0.8,8.3-3.2,14.2-7.2,17.8c-4,3.6-9.6,5.4-16.7,5.4c-6.9,0-11.9-1.4-15.1-4.3s-4.8-6.7-4.8-11.4c0-8.3,4.8-16.2,14.5-23.8
				c9.6-7.6,21.3-13.7,34.9-18.4s25.7-7,36.2-7c12.1,0,22,3.8,29.5,11.4c7.6,7.6,11.4,19.1,11.4,34.5v73.1c0,8,1.4,14.2,4.3,18.6
				s7,6.6,12.2,6.6c3.9,0,7.9-1,12-2.9H1461.9z M1394.5,345.7c-0.3-1.1-0.4-2.9-0.4-5.4v-39.6l-17.8,8.3c-0.8,0.3-3.6,1.3-8.3,3.1
				c-4.7,1.8-8.7,4.8-12.2,8.9c-3.4,4.1-5.2,9-5.2,14.5c0,6.6,2.1,11.8,6.4,15.5s9.2,5.6,14.7,5.6c4.4,0,8.9-1.5,13.6-4.5
				L1394.5,345.7z"/>
			<path class="st0" d="M1778,373c0,1.7-0.6,2.5-1.7,2.5c-7.2,0-12.8-0.1-16.9-0.4l-24.8-0.4l-24,0.4c-4.4,0.3-10.2,0.4-17.4,0.4
				c-0.8,0-1.2-0.8-1.2-2.5s0.4-2.5,1.2-2.5c8.5,0,14.4-2,17.6-6s4.8-11.5,4.8-22.5v-59.5c0-14.9-2.6-25.9-7.6-33.1
				c-5.1-7.2-12.9-10.7-23.3-10.7c-7.2,0-14.2,1.5-21.1,4.5c-6.9,3-12.8,7.2-17.8,12.4v2.5V342c0,11,1.6,18.5,4.8,22.5
				c3.2,4,9,6,17.6,6c1.1,0,1.7,0.8,1.7,2.5s-0.6,2.5-1.7,2.5c-7.2,0-12.8-0.1-16.9-0.4l-24.8-0.4l-24,0.4
				c-4.4,0.3-10.2,0.4-17.4,0.4c-0.8,0-1.2-0.8-1.2-2.5s0.4-2.5,1.2-2.5c8.5,0,14.4-2,17.6-6s4.8-11.5,4.8-22.5v-59.5
				c0-14.9-2.5-25.9-7.6-33.1s-12.9-10.7-23.3-10.7c-6.6,0-13.2,1.3-19.6,3.9c-6.5,2.6-12.2,6.3-17.1,11V342c0,11,1.6,18.5,4.8,22.5
				c3.2,4,9,6,17.6,6c0.8,0,1.2,0.8,1.2,2.5s-0.4,2.5-1.2,2.5c-7.2,0-12.8-0.1-16.9-0.4l-24.8-0.4l-24.4,0.4
				c-4.1,0.3-9.8,0.4-16.9,0.4c-0.8,0-1.2-0.8-1.2-2.5s0.4-2.5,1.2-2.5c8.5,0,14.3-2,17.4-6c3-4,4.5-11.5,4.5-22.5v-77.7
				c0-8.5-1-14.8-3.1-18.8s-5.3-6-9.7-6c-4.7,0-11.3,1.9-19.8,5.8h-0.8c-0.8,0-1.4-0.7-1.9-2.1c-0.4-1.4-0.3-2.2,0.2-2.5l57-28
				c1.7-0.5,2.6-0.8,2.9-0.8c3,0,5.9,3,8.7,8.9c2.8,5.9,4.4,13.8,5,23.8c18.7-22.3,38.8-33.5,60.3-33.5c12.9,0,23.3,3.2,31,9.5
				s12.4,15.4,14,27.3c19-24.5,40.1-36.8,63.2-36.8c14.9,0,26.2,4.3,34.1,12.8s11.8,21.5,11.8,38.8V342c0,11,1.6,18.5,4.8,22.5
				c3.2,4,9,6,17.6,6C1777.5,370.5,1778,371.4,1778,373z"/>
			<path class="st0" d="M2173.9,373c0,1.7-0.3,2.5-0.8,2.5h-73.6c-6.1,0-17.4-11-33.9-32.9s-36.5-52.5-59.9-91.9
				c-2.2,0.3-5.4,0.4-9.5,0.4c-10.7,0-18.3-0.1-22.7-0.4V342c0,8.5,0.7,14.7,2.1,18.6c1.4,3.9,4.1,6.5,8.1,7.9s10.4,2.1,19.2,2.1
				c0.5,0,0.8,0.8,0.8,2.5s-0.3,2.5-0.8,2.5c-9.1,0-16.3-0.1-21.5-0.4l-31.4-0.4l-30.2,0.4c-5.5,0.3-13,0.4-22.3,0.4
				c-0.8,0-1.2-0.8-1.2-2.5s0.4-2.5,1.2-2.5c8.8,0,15.2-0.7,19.2-2.1s6.7-4.1,8.3-8.1c1.5-4,2.3-10.1,2.3-18.4V150.7
				c0-8.3-0.7-14.3-2.1-18.2c-1.4-3.9-4.1-6.5-8.3-8.1c-4.1-1.5-10.5-2.3-19-2.3c-0.6,0-0.8-0.8-0.8-2.5s0.3-2.5,0.8-2.5l21.9,0.4
				c12.7,0.6,22.7,0.8,30.2,0.8c9.4,0,19.1-0.4,29.3-1.2c3.6-0.3,8.1-0.5,13.4-0.8c5.4-0.3,11.4-0.4,18-0.4
				c25.1,0,44.5,4.6,58.3,13.8s20.7,22.1,20.7,38.6c0,15.2-4.1,28.9-12.4,41.1c-8.3,12.3-19.3,22.1-33.1,29.5
				c22,33.1,40.5,59,55.4,77.7s28.1,32.4,39.7,40.9c11.6,8.5,22.9,12.8,33.9,12.8C2173.6,370.5,2173.9,371.4,2173.9,373z
				 M1997.4,240.8c16,0,27.5-4.5,34.5-13.4s10.5-23.3,10.5-43.2c0-22.6-3.3-38.2-9.9-46.7c-6.6-8.5-16.1-12.8-28.5-12.8
				c-11,0-18.9,2.1-23.6,6.2c-4.7,4.1-7,11-7,20.7v87.6C1980.1,240.2,1988.1,240.8,1997.4,240.8z"/>
			<path class="st0" d="M2373.4,373c0,1.7-0.6,2.5-1.7,2.5c-7.2,0-13-0.1-17.4-0.4l-24-0.4l-24.8,0.4c-4.1,0.3-9.8,0.4-16.9,0.4
				c-0.6,0-0.8-0.8-0.8-2.5s0.3-2.5,0.8-2.5c8.5,0,14.4-2,17.6-6c3.2-4,4.8-11.5,4.8-22.5v-59.5c0-14.9-2.8-25.9-8.3-33.1
				s-14-10.7-25.6-10.7c-6.6,0-13.4,1.4-20.5,4.1c-7,2.8-13.2,6.5-18.4,11.2v88c0,11,1.6,18.5,4.8,22.5s9,6,17.6,6
				c1.1,0,1.7,0.8,1.7,2.5s-0.6,2.5-1.7,2.5c-7.2,0-13-0.1-17.4-0.4l-24-0.4l-24.8,0.4c-4.1,0.3-9.8,0.4-16.9,0.4
				c-0.6,0-0.8-0.8-0.8-2.5s0.3-2.5,0.8-2.5c8.5,0,14.4-2,17.6-6c3.2-4,4.8-11.5,4.8-22.5V132.1c0-9.6-0.9-16.5-2.7-20.7
				c-1.8-4.1-4.9-6.2-9.3-6.2c-3.9,0-9.1,1.5-15.7,4.5h-0.4c-0.8,0-1.6-0.8-2.3-2.3s-0.8-2.4-0.2-2.7l60.3-28.5l2.1-0.4
				c1.4,0,2.8,0.6,4.3,1.9c1.5,1.2,2.3,2.4,2.3,3.5v163.6c19.6-22.6,40.5-33.9,62.8-33.9c14.9,0,26.7,4.8,35.3,14.3
				c8.7,9.5,13,22,13,37.4v79.3c0,11,1.6,18.5,4.8,22.5s9,6,17.6,6C2372.9,370.5,2373.4,371.4,2373.4,373z"/>
			<path class="st0" d="M2432.3,369.1c-12.8-7.9-22.7-18.5-29.5-31.8c-6.9-13.4-10.3-27.9-10.3-43.6c0-17.9,4.5-33.1,13.6-45.7
				c9.1-12.5,20.7-21.9,34.7-28.1c14-6.2,28.5-9.3,43.4-9.3c17.1,0,32,4,44.6,12c12.7,8,22.4,18.5,29.1,31.6
				c6.7,13.1,10.1,27.1,10.1,41.9c0,16.5-4.1,31.2-12.4,44s-19.4,22.8-33.3,30c-13.9,7.2-29,10.7-45.2,10.7
				C2460.1,380.9,2445.1,376.9,2432.3,369.1z M2514.1,356.3c5.6-10.6,8.5-25.8,8.5-45.7c0-19.3-2.5-35.8-7.4-49.6
				c-5-13.8-11.4-24.2-19.4-31.2s-16.5-10.5-25.6-10.5c-22,0-33.1,19.7-33.1,59.1c0,18.5,2.3,34.8,7,49s11,25.2,19,33.1
				s16.8,11.8,26.4,11.8C2500.3,372.2,2508.5,366.9,2514.1,356.3z"/>
			<path class="st0" d="M2754.4,353.2c1.1,0,1.9,0.6,2.3,1.9c0.4,1.2,0.1,2.1-1,2.7l-42.6,20.2c-1.1,0.5-2.5,0.8-4.1,0.8
				c-4.4,0-8.6-2.3-12.6-7s-6.8-11-8.5-19l-17.8,12.4c-6.3,4.7-12.3,8.1-17.8,10.1c-5.5,2.1-11.7,3.1-18.6,3.1
				c-11.8,0-20.8-2.6-26.9-7.9c-6.1-5.2-9.1-12.5-9.1-21.9c0-7.4,1.8-13.4,5.4-18c3.6-4.5,8.1-8.1,13.4-10.7
				c5.4-2.6,12.9-5.6,22.5-8.9l10.3-3.7l37.2-13.6v-23.6c0-17.6-1.4-30.4-4.3-38.4c-2.9-8-7.8-12-14.7-12
				c-14.6,0-22.9,11.3-24.8,33.9c-0.8,8.3-3.2,14.2-7.2,17.8c-4,3.6-9.6,5.4-16.7,5.4c-6.9,0-11.9-1.4-15.1-4.3
				c-3.2-2.9-4.8-6.7-4.8-11.4c0-8.3,4.8-16.2,14.5-23.8c9.6-7.6,21.3-13.7,34.9-18.4c13.6-4.7,25.7-7,36.2-7
				c12.1,0,22,3.8,29.5,11.4c7.6,7.6,11.4,19.1,11.4,34.5v73.1c0,8,1.4,14.2,4.3,18.6c2.9,4.4,7,6.6,12.2,6.6c3.9,0,7.9-1,12-2.9
				H2754.4z M2687.1,345.7c-0.3-1.1-0.4-2.9-0.4-5.4v-39.6l-17.8,8.3c-0.8,0.3-3.6,1.3-8.3,3.1c-4.7,1.8-8.7,4.8-12.2,8.9
				c-3.4,4.1-5.2,9-5.2,14.5c0,6.6,2.1,11.8,6.4,15.5c4.3,3.7,9.2,5.6,14.7,5.6c4.4,0,8.9-1.5,13.6-4.5L2687.1,345.7z"/>
			<path class="st0" d="M2963.1,348.6c0.8,0,1.6,0.7,2.3,2.1s0.8,2.2,0.2,2.5l-57,27.7l-2.1,0.4c-2.5,0-4.8-2.6-6.8-7.9
				c-2.1-5.2-3.4-12.4-3.9-21.5c-20.4,19.3-41.2,28.9-62.4,28.9c-12.1,0-23.1-3.2-32.9-9.5c-9.8-6.3-17.6-15.6-23.3-27.9
				c-5.8-12.3-8.7-26.7-8.7-43.2c0-20.9,4.9-38.1,14.7-51.4c9.8-13.4,21.9-23.1,36.4-29.1c14.5-6.1,29-9.1,43.6-9.1
				c10.2,0,20.9,1.7,32.2,5v-83.5c0-9.6-0.9-16.5-2.7-20.7c-1.8-4.1-4.9-6.2-9.3-6.2c-3.6,0-8.7,1.5-15.3,4.5h-0.4
				c-1.1,0-2-0.8-2.7-2.3s-0.8-2.4-0.2-2.7l60.7-28.5l1.7-0.4c1.4,0,2.9,0.6,4.5,1.9c1.7,1.2,2.5,2.4,2.5,3.5v246.3
				c0,9.4,0.9,16,2.7,19.8c1.8,3.9,4.8,5.8,8.9,5.8c3.6,0,9.2-1.5,16.9-4.5L2963.1,348.6L2963.1,348.6z M2895.3,343.7v-2.1V241.2
				c-5-6.9-10.5-11.9-16.7-15.1c-6.2-3.2-13.4-4.8-21.7-4.8c-14.9,0-26.2,5.2-34.1,15.5c-7.9,10.3-11.8,27.1-11.8,50.2
				s4.1,41.3,12.4,54.3c8.3,13.1,19.1,19.6,32.6,19.6C2869.8,361,2882.9,355.2,2895.3,343.7z"/>
			<path class="st0" d="M3126.3,348.2c0.5,0,1.2,0.6,1.9,1.7s0.8,1.9,0.2,2.5c-10.2,9.9-20.5,17.1-31,21.5s-21.9,6.6-34.3,6.6
				c-17.4,0-32.4-3.7-45-11c-12.7-7.3-22.3-17.1-28.9-29.3c-6.6-12.3-9.9-25.5-9.9-39.9c0-16,4-30.7,12-44.2s19.1-24.2,33.3-32
				c14.2-7.9,30.2-11.8,48.1-11.8c17.1,0,30.3,3.9,39.7,11.6c9.4,7.7,14,19.7,14,36c0,8.5-1.5,12.8-4.5,12.8l-100.4,0.4
				c-0.3,1.9-0.4,5.1-0.4,9.5c0,24.2,5.6,43.3,16.7,57c11.2,13.8,27.2,20.7,48.1,20.7c7.4,0,13.8-0.8,19-2.5s12.1-4.7,20.7-9.1
				L3126.3,348.2z M3034.2,232.3c-6.1,7.9-10.1,18.7-12,32.4l59.9-0.8c-0.3-14-2.3-24.8-6.2-32.2s-10.2-11.2-19-11.2
				C3047.8,220.5,3040.2,224.5,3034.2,232.3z"/>
			<path class="st0" d="M3195.9,256.5c5.6,5.8,13.8,11.8,24.6,18.2c10.5,6.1,18.2,10.8,23.3,14.3c5.1,3.4,9.7,8.3,13.8,14.5
				s6.2,13.7,6.2,22.5c0,9.4-2.3,18.2-7,26.4c-4.7,8.3-11.7,14.9-21.1,20c-9.4,5.1-20.5,7.6-33.5,7.6c-15.2,0-29.5-3.7-43-11.2
				c-1.7-1.7-2.5-3.3-2.5-5l-0.8-40.9c0-0.8,0.8-1.3,2.3-1.4s2.4,0.1,2.7,0.6c4.4,13.8,11.7,25.5,21.9,35.1s20.5,14.5,31,14.5
				c5.8,0,10.4-1.8,13.8-5.4c3.4-3.6,5.2-8.8,5.2-15.7c0-10.2-2.9-18.2-8.7-24.2c-5.8-5.9-14.3-12-25.6-18.4
				c-9.6-5.2-16.9-9.5-21.9-12.8s-9.4-8-13.2-14c-3.9-6.1-5.8-13.5-5.8-22.3c0-16.3,5.8-28.2,17.4-35.7
				c11.6-7.6,25.8-11.4,42.6-11.4c6.3,0,12,0.4,17.1,1.2s10.8,2.5,17.1,5c2.5,0.8,3.7,2.3,3.7,4.5c0,6.9-0.1,12.3-0.4,16.1
				l-0.4,20.7c0,0.8-0.8,1.2-2.5,1.2s-2.5-0.4-2.5-1.2c0-5.2-2.2-11-6.6-17.1c-4.4-6.2-10.1-11.5-17.1-15.9s-14.3-6.6-21.7-6.6
				c-11.3,0-16.9,5.4-16.9,16.1C3187.5,243.8,3190.3,250.7,3195.9,256.5z"/>
		</g>
	</g>
	<g>
		<path class="st1" d="M243.8,160h-62.4c-2.3-6.5-7.4-11.5-13.8-13.8v-9h-15.2v9c-6.5,2.3-11.5,7.4-13.8,13.8H76.2v15.2h10.5
			l-25,49.9c-0.5,1.1-0.8,2.2-0.8,3.4c0,21,17.1,38.1,38.1,38.1c21,0,38.1-17.1,38.1-38.1c0-1.2-0.3-2.3-0.8-3.4l-25-49.9h27.2
			c2.3,6.5,7.4,11.5,13.8,13.8v92.8h-38.1v15.2h91.4v-15.2h-38.1v-92.8c6.5-2.3,11.5-7.4,13.8-13.8h27.2l-25,49.9
			c-0.5,1.1-0.8,2.2-0.8,3.4c0,21,17.1,38.1,38.1,38.1c21,0,38.1-17.1,38.1-38.1c0-1.2-0.2-2.3-0.8-3.4l-25-49.9h10.5V160z
			 M99,184.7l18.2,36.3H80.9L99,184.7z M99,251.4c-9.6,0-18.2-6.1-21.4-15.2h42.9C117.3,245.3,108.7,251.4,99,251.4z M221,184.7
			l18.2,36.3h-36.3L221,184.7z M221,251.4c-9.6,0-18.2-6.1-21.4-15.2h42.9C239.2,245.3,230.6,251.4,221,251.4z M160,175.2
			c-4.2,0-7.6-3.4-7.6-7.6c0-4.2,3.4-7.6,7.6-7.6c4.2,0,7.6,3.4,7.6,7.6C167.6,171.8,164.2,175.2,160,175.2z"/>
		<path class="st1" d="M83.8,281.9H99v15.2H83.8V281.9z"/>
		<path class="st1" d="M221,281.9h15.2v15.2H221V281.9z"/>
		<path class="st1" d="M312.4,68.6c-29.7,0-56-19.1-65.2-47.3c-0.9-2.6-3-4.6-5.7-5.1l-79.9-16c-1-0.2-2-0.2-3,0l-80,16
			c-2.7,0.5-4.9,2.5-5.7,5.1C63.7,49.5,37.3,68.6,7.6,68.6C3.4,68.6,0,72,0,76.2v221c0,37.5,26.7,75.8,79.3,113.9
			c24.4,17.5,50.3,32.7,77.5,45.4c2,0.9,4.2,0.9,6.2,0c6.4-2.9,156.9-71.2,156.9-159.3v-221C320,72,316.6,68.6,312.4,68.6z
			 M304.8,297.1c0,71.9-123.4,133.8-144.8,144c-25.1-12.1-49.1-26.2-71.7-42.4c-33.3-24.2-73-61.4-73-101.6V83.5
			C47,80.6,74.3,60,85.8,30.2L160,15.4l74.2,14.9C245.7,60,273,80.6,304.8,83.5V297.1z"/>
		<path class="st1" d="M225,46.8c-1.1-2-3-3.4-5.2-3.9l-58.3-11.7c-1-0.2-2-0.2-3,0l-58.4,11.7c-2.2,0.5-4.1,1.9-5.2,3.9
			C82.5,70,61.2,87.4,35.9,95c-3.2,1-5.5,3.9-5.5,7.3v194.9c0,26.8,23.1,57.6,66.7,89.2c18.9,13.5,38.8,25.6,59.6,36.2
			c2.1,1.1,4.7,1.1,6.8,0.1C256,377.7,289.5,323,289.5,297.1V102.3c0-3.4-2.2-6.3-5.5-7.3C258.8,87.4,237.5,70,225,46.8z
			 M274.3,297.1c0,17.6-27.9,67.3-113.9,110.1c-18.8-9.8-36.9-20.9-54.2-33.2c-38.4-27.8-60.4-55.8-60.4-76.9V107.8
			c25.7-9.1,47.3-27.1,60.9-50.6L160,46.5l53.4,10.7c13.7,23.6,35.2,41.5,60.9,50.6V297.1z"/>
	</g>
</g>
</svg>
