<svg xmlns="http://www.w3.org/2000/svg" class="si612f7a8180e5e700238ce0bce6b28622062c41b69a97908a2e30efee1630501511741 svgIcon_1J7 outlined_2wD darkTheme_3jZ" viewBox="0 0 32 32" style="border-radius:50%"><path class="outer_bDW" d="M20.5387847,12.2184235 L12.0544503,17.5151408 L13.4519617,22.1244767 C13.6235859,22.5780549 13.5377738,22.761938 14.0158699,22.761938 L16.67693,19.6368497 L20.1943415,22.231304 C20.8685794,22.5990702 21.3589343,22.4151871 21.5305585,21.6061016 L23.9455564,10.2298682 C24.1907338,9.23689951 23.5655313,8.79558011 22.9158111,9.08979304 L8.74455481,14.55725 C7.77610391,14.9495339 7.78836278,15.4889243 8.5729306,15.7218429 L12.2138156,16.861918 L20.6356608,11.5538264 C21.0279448,11.3086489 21.395711,11.4434965 21.101498,11.7131917 L20.5387847,12.2184235 Z M1.77635684e-15,7.10542736e-15 L32,7.10542736e-15 L32,32 L1.77635684e-15,32 L1.77635684e-15,7.10542736e-15 Z"></path><path d="M16,31 C24.2842712,31 31,24.2842712 31,16 C31,7.71572875 24.2842712,1 16,1 C7.71572875,1 1,7.71572875 1,16 C1,24.2842712 7.71572875,31 16,31 Z M16,32 C7.163444,32 0,24.836556 0,16 C0,7.163444 7.163444,0 16,0 C24.836556,0 32,7.163444 32,16 C32,24.836556 24.836556,32 16,32 Z" class="border_2yy"></path><path class="logo_2gS" d="M20.5387847,12.2184235 L21.101498,11.7131917 C21.395711,11.4434965 21.0279448,11.3086489 20.6356608,11.5538264 L12.2138156,16.861918 L8.5729306,15.7218429 C7.78836278,15.4889243 7.77610391,14.9495339 8.74455481,14.55725 L22.9158111,9.08979304 C23.5655313,8.79558011 24.1907338,9.23689951 23.9455564,10.2298682 L21.5305585,21.6061016 C21.3589343,22.4151871 20.8685794,22.5990702 20.1943415,22.231304 L16.67693,19.6368497 L14.0158699,22.761938 C13.5377738,22.761938 13.6235859,22.5780549 13.4519617,22.1244767 L12.0544503,17.5151408 L20.5387847,12.2184235 Z"></path></svg>